<svg xmlns="http://www.w3.org/2000/svg" xmlns:xlink="http://www.w3.org/1999/xlink" width="512" zoomAndPan="magnify" viewBox="0 0 384 383.999986" height="512" preserveAspectRatio="xMidYMid meet" version="1.0"><defs><filter x="0%" y="0%" width="100%" height="100%" id="e57df247bc"><feColorMatrix values="0 0 0 0 1 0 0 0 0 1 0 0 0 0 1 0 0 0 1 0" color-interpolation-filters="sRGB"/></filter><clipPath id="308c095c19"><path d="M 0 0.0390625 L 339.683594 0.0390625 L 339.683594 325.644531 L 0 325.644531 Z M 0 0.0390625 " clip-rule="nonzero"/></clipPath><mask id="8dfddfd531"><g filter="url(#e57df247bc)"><rect x="-84.48" width="552.96" fill="#000000" y="-113.479997" height="552.959979" fill-opacity="0.9922"/></g></mask><clipPath id="ef9b5572f3"><path d="M 0 0.0390625 L 339 0.0390625 L 339 325.644531 L 0 325.644531 Z M 0 0.0390625 " clip-rule="nonzero"/></clipPath><clipPath id="e41f164dcf"><rect x="0" width="340" y="0" height="326"/></clipPath><clipPath id="c269118f3b"><path d="M 143.253906 23.667969 L 383.519531 23.667969 L 383.519531 286.023438 L 143.253906 286.023438 Z M 143.253906 23.667969 " clip-rule="nonzero"/></clipPath><mask id="937b3cc5cd"><g filter="url(#e57df247bc)"><rect x="-84.48" width="552.96" fill="#000000" y="-113.479997" height="552.959979" fill-opacity="0.9922"/></g></mask><clipPath id="cbde3c1ab0"><path d="M 0.253906 0.667969 L 240.519531 0.667969 L 240.519531 263 L 0.253906 263 Z M 0.253906 0.667969 " clip-rule="nonzero"/></clipPath><clipPath id="bbe0359179"><rect x="0" width="241" y="0" height="264"/></clipPath><clipPath id="11308675db"><rect x="0" width="384" y="0" height="327"/></clipPath></defs><g transform="matrix(1, 0, 0, 1, 0, 29)"><g clip-path="url(#11308675db)"><g clip-path="url(#308c095c19)"><g mask="url(#8dfddfd531)"><g><g clip-path="url(#e41f164dcf)"><g clip-path="url(#ef9b5572f3)"><path fill="#2f6fed" d="M 190.460938 44.28125 C 188.632812 44.28125 186.691406 44.285156 184.632812 44.285156 C 157.171875 44.320312 149.90625 44.542969 147.707031 45.425781 C 145.871094 46.160156 144.492188 47.496094 143.511719 49.488281 C 142.277344 51.988281 142.183594 52.910156 142.925781 55.382812 C 143.5 57.300781 144.675781 58.851562 146.339844 59.871094 C 148.78125 61.371094 150.296875 61.433594 184.4375 61.457031 L 219.996094 61.484375 C 224.570312 58.460938 225.722656 56.925781 226.246094 54.992188 C 226.875 52.6875 226.757812 51.566406 225.660156 49.351562 C 224.800781 47.613281 223.28125 46.15625 221.558594 45.417969 C 219.425781 44.503906 214.179688 44.28125 190.460938 44.28125 Z M 166.5 81.9375 C 153.113281 81.9375 148.210938 82.179688 147.125 82.789062 C 146.160156 83.328125 144.898438 84.460938 144.316406 85.304688 C 143.738281 86.148438 143.0625 87.714844 142.820312 88.789062 C 142.574219 89.867188 142.695312 91.886719 143.089844 93.285156 C 143.53125 94.859375 144.765625 96.410156 146.339844 97.363281 C 148.710938 98.796875 150.4375 98.90625 171.933594 98.960938 C 174.367188 98.964844 176.546875 98.96875 178.503906 98.96875 C 193.480469 98.96875 195.316406 98.746094 196.6875 97.617188 C 197.621094 96.84375 200.191406 93.753906 202.394531 90.746094 C 204.757812 87.523438 206.304688 84.632812 206.167969 83.710938 C 205.933594 82.183594 205.261719 82.144531 177.40625 81.976562 C 173.261719 81.949219 169.644531 81.9375 166.5 81.9375 Z M 251.777344 119.269531 L 247.878906 124.542969 C 245.738281 127.445312 243.90625 130.347656 243.816406 130.992188 C 243.722656 131.636719 243.6875 132.601562 243.738281 133.140625 C 243.789062 133.679688 244.886719 134.644531 246.175781 135.289062 C 247.703125 136.054688 250.535156 136.320312 260.273438 136.320312 C 262.910156 136.320312 266.054688 136.300781 269.816406 136.265625 C 287.203125 136.105469 291.433594 135.855469 292.875 134.898438 C 293.847656 134.253906 295.207031 132.496094 295.902344 130.992188 C 296.929688 128.757812 297.003906 127.71875 296.285156 125.324219 C 295.710938 123.40625 294.535156 121.855469 292.871094 120.835938 C 290.511719 119.386719 288.945312 119.273438 271.054688 119.273438 Z M 238.984375 156.78125 L 236.40625 159.4375 C 234.59375 161.304688 233.804688 162.871094 233.753906 164.710938 C 233.710938 166.152344 234.378906 168.472656 235.238281 169.871094 C 236.167969 171.382812 237.828125 172.726562 239.339844 173.191406 C 240.644531 173.589844 252.828125 173.808594 272.9375 173.808594 C 277.4375 173.808594 282.335938 173.796875 287.59375 173.777344 C 331.898438 173.589844 333.378906 173.535156 335.496094 172.019531 C 336.695312 171.160156 337.882812 169.929688 338.132812 169.285156 C 338.378906 168.640625 338.714844 166.792969 338.878906 165.179688 C 339.128906 162.675781 338.773438 161.851562 336.4375 159.515625 L 333.703125 156.78125 Z M 287.59375 194.292969 C 228.703125 194.332031 217.15625 194.609375 216.089844 195.199219 C 215.230469 195.671875 213.917969 196.804688 213.175781 197.714844 C 212.375 198.695312 211.816406 200.730469 211.808594 202.691406 C 211.792969 205.355469 212.257812 206.480469 214.136719 208.359375 L 216.480469 210.703125 C 278.167969 210.703125 287.316406 210.464844 288.859375 209.726562 C 289.988281 209.1875 291.394531 207.78125 291.988281 206.601562 C 292.578125 205.417969 293.066406 203.394531 293.066406 202.105469 C 293.066406 200.46875 292.242188 198.9375 290.328125 197.027344 Z M 143.675781 185.722656 C 143.652344 185.722656 143.628906 185.722656 143.605469 185.722656 C 141.777344 185.734375 138.261719 186.4375 135.789062 187.285156 C 133.320312 188.128906 129.976562 189.652344 128.367188 190.664062 C 126.753906 191.679688 123.941406 194.140625 122.113281 196.136719 C 120.289062 198.128906 118.214844 200.90625 117.507812 202.300781 C 116.804688 203.699219 115.726562 206.25 115.121094 207.96875 C 114.511719 209.6875 113.347656 214.433594 112.53125 218.519531 C 111.71875 222.601562 110.304688 227.699219 109.390625 229.851562 C 108.480469 232 106.570312 235.164062 105.148438 236.882812 C 103.726562 238.601562 100.5 241.230469 97.976562 242.726562 C 95.457031 244.21875 91.460938 245.894531 89.097656 246.445312 C 86.734375 246.996094 84.621094 247.613281 84.40625 247.820312 C 84.191406 248.023438 87.007812 249.601562 90.660156 251.320312 C 94.3125 253.042969 100.117188 255.164062 103.554688 256.035156 C 107.320312 256.992188 112.605469 257.65625 116.839844 257.703125 C 117.054688 257.707031 117.273438 257.707031 117.496094 257.707031 C 121.238281 257.707031 125.65625 257.363281 127.585938 256.90625 C 129.625 256.425781 133.144531 255.097656 135.398438 253.960938 C 137.65625 252.824219 141.199219 250.449219 143.273438 248.6875 C 145.34375 246.921875 148.335938 243.632812 149.914062 241.378906 C 151.449219 239.1875 152.804688 237.46875 152.984375 237.46875 C 152.992188 237.46875 152.996094 237.46875 153 237.472656 C 153.117188 237.578125 152.511719 239.597656 151.660156 241.960938 C 150.808594 244.328125 148.691406 248.28125 146.957031 250.753906 C 144.675781 254.003906 144.144531 254.902344 144.855469 254.902344 C 145.023438 254.902344 145.261719 254.855469 145.558594 254.773438 C 146.527344 254.511719 148.898438 253.609375 150.835938 252.765625 C 152.769531 251.921875 156.636719 249.714844 159.429688 247.863281 C 162.222656 246.015625 166.210938 242.609375 168.292969 240.300781 C 170.371094 237.992188 173.097656 233.992188 174.347656 231.414062 C 175.597656 228.832031 177.003906 224.613281 177.472656 222.035156 C 177.9375 219.457031 178.085938 215.761719 177.796875 213.828125 C 177.511719 211.894531 176.667969 208.90625 175.925781 207.1875 C 174.828125 204.648438 172.527344 202.566406 163.679688 196.109375 C 157.691406 191.738281 151.46875 187.605469 149.859375 186.925781 C 148.265625 186.257812 145.503906 185.722656 143.675781 185.722656 Z M 199.25 268.5625 C 197.570312 268.5625 195.828125 268.5625 194.011719 268.5625 C 160.632812 268.585938 149.816406 268.828125 147.765625 269.59375 C 146.289062 270.140625 144.667969 271.269531 144.15625 272.101562 C 143.648438 272.933594 143.007812 274.578125 142.734375 275.761719 C 142.460938 276.945312 142.699219 279.054688 143.261719 280.449219 C 143.824219 281.847656 145.144531 283.609375 146.191406 284.363281 C 147.960938 285.636719 151.460938 285.738281 194.207031 285.738281 C 236.953125 285.738281 240.453125 285.636719 242.222656 284.363281 C 243.269531 283.609375 244.589844 281.847656 245.152344 280.449219 C 245.714844 279.054688 245.953125 276.945312 245.679688 275.761719 C 245.40625 274.578125 244.617188 272.949219 243.921875 272.136719 C 243.226562 271.324219 241.515625 270.183594 240.121094 269.597656 C 238.183594 268.785156 229.980469 268.5625 199.25 268.5625 Z M 106.425781 0.046875 C 101.125 0.046875 96.835938 0.28125 93.394531 0.59375 C 89.097656 0.984375 82.238281 2.132812 78.15625 3.140625 C 74.074219 4.152344 68.445312 6.054688 65.652344 7.363281 C 62.859375 8.675781 58.460938 11.285156 55.882812 13.160156 C 53.304688 15.035156 49.574219 18.664062 47.589844 21.222656 C 45.609375 23.785156 42.835938 28.167969 41.433594 30.960938 C 40.027344 33.753906 37.992188 39.382812 36.90625 43.464844 C 34.980469 50.707031 34.917969 51.761719 34.386719 86.835938 C 34 112.152344 33.546875 123.710938 32.855469 125.910156 C 32.316406 127.632812 31.15625 130.445312 30.28125 132.164062 C 29.402344 133.882812 27.949219 136.277344 27.046875 137.488281 C 26.144531 138.695312 23.648438 140.886719 21.5 142.355469 C 19.347656 143.824219 15.65625 145.6875 13.292969 146.492188 C 10.929688 147.300781 6.972656 148.1875 4.5 148.460938 L 0.0078125 148.964844 L 0 178.269531 C 9.71875 179.628906 13.960938 180.867188 16.765625 182.246094 C 19.324219 183.496094 23.015625 186.109375 24.972656 188.050781 C 26.929688 189.988281 29.316406 193.152344 30.277344 195.082031 C 31.238281 197.011719 32.550781 201.050781 33.195312 204.058594 C 34.105469 208.3125 34.371094 215.632812 34.394531 236.882812 C 34.40625 251.925781 34.757812 267.398438 35.167969 271.269531 C 35.578125 275.136719 36.660156 281.117188 37.566406 284.554688 C 38.476562 287.992188 40.265625 292.914062 41.550781 295.496094 C 42.832031 298.074219 45.261719 302.03125 46.953125 304.285156 C 48.640625 306.542969 52.042969 310.003906 54.515625 311.980469 C 56.988281 313.953125 61.472656 316.765625 64.480469 318.226562 C 67.488281 319.6875 73.292969 321.734375 77.375 322.777344 C 81.457031 323.816406 89.195312 325.082031 94.566406 325.585938 C 99.003906 326.003906 103.738281 326.273438 106.21875 326.273438 C 106.742188 326.273438 107.164062 326.261719 107.460938 326.238281 L 110.585938 325.972656 L 110.585938 294.714844 C 100.292969 293.953125 95.191406 293.125 92.613281 292.382812 C 90.035156 291.640625 86.695312 290.410156 85.1875 289.644531 C 83.683594 288.878906 81.023438 286.71875 79.273438 284.839844 C 77.527344 282.964844 75.257812 279.316406 74.234375 276.738281 C 72.398438 272.117188 72.363281 271.53125 71.855469 236.492188 C 71.414062 205.902344 71.148438 200.226562 69.953125 195.855469 C 69.1875 193.0625 67.769531 189.015625 66.804688 186.867188 C 65.839844 184.71875 63.867188 181.316406 62.421875 179.308594 C 60.972656 177.300781 58.222656 174.308594 56.308594 172.664062 C 54.394531 171.019531 50.089844 168.269531 46.746094 166.550781 L 40.664062 163.421875 C 50.429688 158.757812 53.597656 156.40625 57.90625 152.125 C 61.984375 148.066406 64.597656 144.648438 66.289062 141.152344 C 67.640625 138.355469 69.335938 133.960938 70.058594 131.382812 C 71.167969 127.425781 71.453125 120.898438 71.878906 89.574219 C 72.34375 55.390625 72.503906 52.140625 73.902344 48.542969 C 74.824219 46.171875 77.109375 42.910156 79.71875 40.242188 C 83.429688 36.449219 84.820312 35.605469 89.878906 34.070312 C 93.164062 33.070312 99.003906 32.082031 103.164062 31.820312 L 110.585938 31.351562 L 110.585938 0.09375 C 109.136719 0.0585938 107.75 0.046875 106.425781 0.046875 Z M 106.425781 0.046875 " fill-opacity="1" fill-rule="nonzero"/></g></g></g></g></g><g clip-path="url(#c269118f3b)"><g mask="url(#937b3cc5cd)"><g transform="matrix(1, 0, 0, 1, 143, 23)"><g clip-path="url(#bbe0359179)"><g clip-path="url(#cbde3c1ab0)"><path fill="#3d4949" d="M 126.996094 18.117188 C 127.09375 18.117188 127.1875 18.121094 127.273438 18.132812 C 128.980469 18.316406 129.25 18.761719 129.421875 21.667969 C 129.527344 23.5 129.089844 26.054688 128.445312 27.34375 C 127.800781 28.636719 126.132812 30.5625 124.738281 31.628906 C 123.347656 32.691406 121.503906 33.578125 120.644531 33.597656 C 120.625 33.597656 120.609375 33.597656 120.589844 33.597656 C 119.738281 33.597656 118.628906 33.175781 118.097656 32.640625 C 117.554688 32.097656 117.113281 30.679688 117.121094 29.496094 C 117.128906 28.3125 117.835938 25.9375 118.695312 24.214844 C 119.550781 22.492188 121.394531 20.371094 122.789062 19.5 C 124.070312 18.703125 125.878906 18.117188 126.996094 18.117188 Z M 207.0625 21.144531 C 204.992188 21.144531 202.777344 21.148438 200.40625 21.152344 C 182.710938 21.191406 167.039062 21.539062 165.585938 21.925781 C 164.128906 22.308594 162.457031 23.246094 161.867188 24.007812 C 161.277344 24.765625 160.566406 26.796875 160.28125 28.519531 C 159.910156 30.789062 160.128906 32.242188 161.074219 33.800781 C 161.792969 34.988281 163.433594 36.484375 164.71875 37.128906 C 166.265625 37.90625 169.898438 38.167969 185.152344 38.167969 C 189.542969 38.167969 194.898438 38.144531 201.449219 38.109375 L 235.835938 37.914062 C 239.765625 33.519531 240.386719 32.023438 240.394531 29.890625 C 240.394531 28.273438 239.78125 26.09375 239.027344 25.042969 C 238.273438 23.992188 236.515625 22.671875 235.121094 22.109375 C 233.347656 21.390625 226.722656 21.144531 207.0625 21.144531 Z M 177.515625 58.699219 C 174.554688 58.699219 171.21875 58.703125 167.449219 58.707031 C 149.429688 58.734375 133.898438 59.054688 132.9375 59.421875 C 131.976562 59.789062 130.128906 61.4375 128.835938 63.089844 C 127.253906 65.113281 126.480469 66.984375 126.46875 68.832031 C 126.460938 70.773438 127.046875 72.140625 128.488281 73.527344 L 130.519531 75.484375 C 151.160156 75.601562 165.726562 75.667969 176.058594 75.667969 C 197.851562 75.667969 200.8125 75.382812 202.164062 74.703125 C 203.546875 74.007812 205.011719 72.328125 205.75 70.59375 C 206.757812 68.226562 206.832031 67.089844 206.140625 64.722656 C 205.574219 62.785156 204.421875 61.253906 202.746094 60.222656 C 200.609375 58.90625 199.230469 58.699219 177.515625 58.699219 Z M 202.3125 96.519531 C 180.375 96.519531 172.644531 96.714844 171.96875 96.984375 C 171.023438 97.359375 169.519531 98.664062 168.625 99.882812 C 167.699219 101.152344 167.015625 103.269531 167.027344 104.839844 C 167.039062 106.347656 167.664062 108.4375 168.417969 109.488281 C 169.171875 110.539062 170.929688 111.859375 172.324219 112.425781 C 174.257812 113.207031 181.726562 113.449219 203.722656 113.449219 C 225.71875 113.449219 233.1875 113.207031 235.121094 112.425781 C 236.515625 111.859375 238.273438 110.539062 239.027344 109.488281 C 239.78125 108.4375 240.394531 106.257812 240.394531 104.644531 C 240.386719 102.507812 239.765625 101.015625 238.109375 99.164062 L 235.835938 96.621094 C 222.09375 96.550781 211.070312 96.519531 202.3125 96.519531 Z M 225.351562 133.824219 C 225.101562 133.824219 224.847656 133.824219 224.589844 133.828125 C 219.152344 133.839844 214.363281 134.222656 213.472656 134.710938 C 212.617188 135.183594 211.308594 136.320312 210.566406 137.230469 C 209.769531 138.210938 209.210938 140.25 209.199219 142.21875 C 209.1875 144.78125 209.675781 146.070312 211.328125 147.84375 C 213.265625 149.921875 214 150.160156 218.933594 150.304688 C 220.785156 150.359375 223.40625 150.386719 225.878906 150.386719 C 227.421875 150.386719 228.90625 150.375 230.109375 150.351562 C 235.363281 150.25 236.011719 150.050781 238.105469 147.890625 C 239.746094 146.203125 240.386719 144.773438 240.386719 142.804688 C 240.386719 141.296875 240.027344 139.273438 239.589844 138.304688 C 239.152344 137.335938 237.746094 135.925781 236.46875 135.171875 C 234.652344 134.101562 232.46875 133.824219 225.351562 133.824219 Z M 137.589844 0.730469 C 135.871094 0.730469 132.542969 1.757812 129.59375 3.203125 C 125.589844 5.164062 122.363281 7.882812 114.007812 16.316406 C 108.214844 22.167969 99.789062 31.648438 95.285156 37.386719 C 90.785156 43.128906 82.425781 54.222656 76.710938 62.046875 C 71 69.867188 60.433594 85.074219 53.238281 95.835938 C 46.039062 106.601562 37.113281 120.25 33.398438 126.171875 C 29.683594 132.089844 26.734375 137.085938 26.839844 137.277344 C 26.949219 137.464844 31.597656 140.980469 37.175781 145.089844 C 42.753906 149.195312 47.757812 152.566406 48.292969 152.574219 C 48.835938 152.574219 53.429688 147.5625 58.507812 141.433594 C 63.589844 135.300781 71.71875 125.171875 76.570312 118.929688 C 81.421875 112.6875 88.785156 103 92.929688 97.402344 C 97.074219 91.804688 103.472656 83 107.148438 77.832031 C 110.820312 72.667969 117.28125 63.15625 121.5 56.699219 C 125.71875 50.242188 131.386719 41.082031 134.09375 36.347656 C 136.800781 31.609375 140.09375 24.917969 141.410156 21.472656 C 142.722656 18.03125 143.992188 13.625 144.226562 11.6875 C 144.460938 9.75 144.429688 7.199219 144.15625 6.015625 C 143.882812 4.828125 142.953125 3.15625 142.097656 2.296875 C 141.085938 1.28125 139.496094 0.730469 137.589844 0.730469 Z M 10.671875 135.367188 C 8.328125 135.367188 7.511719 135.929688 4.714844 139.476562 C 2.933594 141.738281 1.132812 144.292969 0.710938 145.152344 C 0.289062 146.015625 0.132812 147.597656 0.359375 148.675781 C 0.664062 150.136719 5.839844 154.390625 20.847656 165.503906 C 31.894531 173.683594 41.488281 180.679688 42.171875 181.050781 C 42.585938 181.273438 43.277344 181.390625 44.007812 181.390625 C 44.492188 181.390625 44.992188 181.339844 45.4375 181.230469 C 46.6875 180.925781 48.84375 178.878906 51.101562 175.859375 C 53.714844 172.367188 54.746094 170.261719 54.738281 168.441406 C 54.730469 166.097656 53.976562 165.34375 45.171875 158.84375 C 39.917969 154.96875 30.613281 148.097656 24.5 143.582031 C 15.40625 136.863281 12.890625 135.367188 10.671875 135.367188 Z M 168.511719 171.328125 L 165.914062 174.011719 C 164.175781 175.808594 163.289062 177.503906 163.238281 179.125 C 163.195312 180.460938 163.644531 182.519531 164.234375 183.703125 C 164.828125 184.886719 166.230469 186.296875 167.355469 186.835938 C 168.890625 187.570312 177.484375 187.8125 201.773438 187.8125 C 227.738281 187.8125 234.570312 187.601562 236.292969 186.734375 C 237.472656 186.140625 238.875 184.730469 239.410156 183.601562 C 239.949219 182.476562 240.386719 180.320312 240.386719 178.8125 C 240.386719 177.03125 239.726562 175.316406 238.503906 173.917969 L 236.621094 171.765625 Z M 175.53125 208.558594 C 89.464844 208.558594 62.644531 208.734375 60.40625 208.949219 C 57.3125 209.246094 55.808594 209.863281 54.164062 211.511719 C 52.429688 213.25 51.996094 214.390625 51.996094 217.25 C 51.996094 220.285156 52.375 221.160156 54.53125 223.101562 L 57.066406 225.386719 C 166.019531 225.386719 174.402344 225.226562 176.421875 224.214844 C 177.742188 223.550781 179.269531 221.847656 179.929688 220.300781 C 180.574219 218.792969 180.914062 216.589844 180.6875 215.40625 C 180.460938 214.222656 179.207031 212.199219 177.902344 210.90625 Z M 178.460938 245.742188 C 178.367188 245.742188 178.269531 245.742188 178.175781 245.742188 C 127.9375 245.742188 123.554688 245.847656 121.035156 247.109375 C 119.460938 247.898438 117.734375 249.640625 116.957031 251.21875 C 115.886719 253.394531 115.765625 254.5625 116.371094 256.894531 C 116.894531 258.902344 117.9375 260.324219 119.667969 261.390625 C 122.140625 262.914062 123.609375 262.957031 178.175781 262.957031 C 178.335938 262.957031 178.496094 262.957031 178.65625 262.957031 C 217.972656 262.957031 234.664062 262.703125 235.902344 262.085938 C 236.867188 261.605469 238.261719 260.460938 239.003906 259.542969 C 239.765625 258.597656 240.363281 256.511719 240.375 254.742188 C 240.386719 252.964844 239.804688 250.785156 239.027344 249.703125 C 238.273438 248.652344 236.515625 247.332031 235.121094 246.765625 C 233.117188 245.957031 221.296875 245.742188 178.460938 245.742188 Z M 178.460938 245.742188 " fill-opacity="1" fill-rule="nonzero"/></g></g></g></g></g></g></g></svg>